# xmcd
#
# Track frame offsets: 
#        150
#        11591
#        27545
#        43138
#        54188
#        64097
#        74749
#        88286
#        102255
#        120497
#        134276
#
# Disc length: 2042 seconds
#
# Revision: 0
# Processed by: cddbd v1.5.2PL0 Copyright (c) Steve Scherf et al.
# Submitted via: ExactAudioCopy v0.95b4
#
DISCID=9c07f80b
DTITLE=Asleep at the Wheel - Santa Loves to Boogie [678572-956423]
DYEAR=2006
DGENRE=Country
TTITLE0=Santa Lovers to Boogie
TTITLE1=Hot Texas Christmas Day feat. Dale Watson
TTITLE2=Give You My Gift
TTITLE3=Pretty Paper feat. Willie Nelson
TTITLE4=Mele Kalikimaka
TTITLE5=Santa's On His Way
TTITLE6=I Hate Christmas
TTITLE7=Rudolph the Red Nosed Reindeer feat. Jack Ingram
TTITLE8=I'll Be Home for Christmas
TTITLE9=Christmas in Texas feat. Kevin Fowler
TTITLE10=Silent Night
EXTD=
EXTT0=
EXTT1=
EXTT2=
EXTT3=
EXTT4=
EXTT5=
EXTT6=
EXTT7=
EXTT8=
EXTT9=
EXTT10=
PLAYORDER=
